<?xml version="1.0" encoding="UTF-8" standalone="no"?><svg xmlns="http://www.w3.org/2000/svg" xmlns:xlink="http://www.w3.org/1999/xlink" contentScriptType="application/ecmascript" contentStyleType="text/css" height="775px" preserveAspectRatio="none" style="width:319px;height:775px;" version="1.1" viewBox="0 0 319 775" width="319px" zoomAndPan="magnify"><defs/><g><text fill="#000000" font-family="sans-serif" font-size="18" lengthAdjust="spacingAndGlyphs" textLength="126" x="100" y="16.708">状態遷移図の例</text><rect fill="#FEFECE" height="50" rx="12.5" ry="12.5" style="stroke: #A80036; stroke-width: 1.5;" width="62" x="172" y="125.9531"/><line style="stroke: #A80036; stroke-width: 1.5;" x1="172" x2="234" y1="152.25" y2="152.25"/><text fill="#000000" font-family="sans-serif" font-size="14" lengthAdjust="spacingAndGlyphs" textLength="42" x="182" y="143.9482">審査中</text><rect fill="#FEFECE" height="50" rx="12.5" ry="12.5" style="stroke: #A80036; stroke-width: 1.5;" width="62" x="172" y="252.9531"/><line style="stroke: #A80036; stroke-width: 1.5;" x1="172" x2="234" y1="279.25" y2="279.25"/><text fill="#000000" font-family="sans-serif" font-size="14" lengthAdjust="spacingAndGlyphs" textLength="42" x="182" y="270.9482">承認済</text><rect fill="#FEFECE" height="50" rx="12.5" ry="12.5" style="stroke: #A80036; stroke-width: 1.5;" width="62" x="158" y="379.9531"/><line style="stroke: #A80036; stroke-width: 1.5;" x1="158" x2="220" y1="406.25" y2="406.25"/><text fill="#000000" font-family="sans-serif" font-size="14" lengthAdjust="spacingAndGlyphs" textLength="42" x="168" y="397.9482">実施中</text><rect fill="#FEFECE" height="50" rx="12.5" ry="12.5" style="stroke: #A80036; stroke-width: 1.5;" width="62" x="104" y="506.9531"/><line style="stroke: #A80036; stroke-width: 1.5;" x1="104" x2="166" y1="533.25" y2="533.25"/><text fill="#000000" font-family="sans-serif" font-size="14" lengthAdjust="spacingAndGlyphs" textLength="42" x="114" y="524.9482">中断中</text><rect fill="#FEFECE" height="50" rx="12.5" ry="12.5" style="stroke: #A80036; stroke-width: 1.5;" width="90" x="6" y="125.9531"/><line style="stroke: #A80036; stroke-width: 1.5;" x1="6" x2="96" y1="152.25" y2="152.25"/><text fill="#000000" font-family="sans-serif" font-size="14" lengthAdjust="spacingAndGlyphs" textLength="70" x="16" y="143.9482">差し戻し中</text><rect fill="#FEFECE" height="50" rx="12.5" ry="12.5" style="stroke: #A80036; stroke-width: 1.5;" width="50" x="185" y="633.9531"/><line style="stroke: #A80036; stroke-width: 1.5;" x1="185" x2="235" y1="660.25" y2="660.25"/><text fill="#000000" font-family="sans-serif" font-size="14" lengthAdjust="spacingAndGlyphs" textLength="28" x="196" y="651.9482">終了</text><ellipse cx="203" cy="38.9531" fill="#000000" rx="10" ry="10" style="stroke: none; stroke-width: 1.0;"/><ellipse cx="210" cy="754.9531" fill="none" rx="10" ry="10" style="stroke: #000000; stroke-width: 1.0;"/><ellipse cx="210.5" cy="755.4531" fill="#000000" rx="6" ry="6" style="stroke: none; stroke-width: 1.0;"/><!--link *start to 審査中--><path d="M203,49.289 C203,65.299 203,96.7165 203,120.4102 " fill="none" id="*start-審査中" style="stroke: #A80036; stroke-width: 1.0;"/><polygon fill="#A80036" points="203,125.6435,207,116.6435,203,120.6435,199,116.6435,203,125.6435" style="stroke: #A80036; stroke-width: 1.0;"/><text fill="#000000" font-family="sans-serif" font-size="13" lengthAdjust="spacingAndGlyphs" textLength="26" x="204" y="92.02">申請</text><!--link 審査中 to 承認済--><path d="M203,176.0442 C203,196.6566 203,225.9178 203,247.8015 " fill="none" id="審査中-承認済" style="stroke: #A80036; stroke-width: 1.0;"/><polygon fill="#A80036" points="203,252.9141,207,243.9141,203,247.9141,199,243.9141,203,252.9141" style="stroke: #A80036; stroke-width: 1.0;"/><text fill="#000000" font-family="sans-serif" font-size="13" lengthAdjust="spacingAndGlyphs" textLength="26" x="204" y="219.02">承認</text><!--link 承認済 to 実施中--><path d="M200.2341,303.0442 C197.9618,323.6566 194.7362,352.9178 192.3238,374.8015 " fill="none" id="承認済-実施中" style="stroke: #A80036; stroke-width: 1.0;"/><polygon fill="#A80036" points="191.7602,379.9141,196.7225,371.4067,192.3082,374.9442,188.7707,370.5299,191.7602,379.9141" style="stroke: #A80036; stroke-width: 1.0;"/><text fill="#000000" font-family="sans-serif" font-size="13" lengthAdjust="spacingAndGlyphs" textLength="26" x="197" y="346.02">開始</text><!--link 実施中 to 中断中--><path d="M157.7356,419.058 C141.5086,428.198 123.1962,441.8052 114,459.9531 C107.3428,473.0904 110.6679,488.6743 116.4539,501.9783 " fill="none" id="実施中-中断中" style="stroke: #A80036; stroke-width: 1.0;"/><polygon fill="#A80036" points="118.683,506.7678,118.5118,496.9205,116.5732,502.2348,111.2589,500.2962,118.683,506.7678" style="stroke: #A80036; stroke-width: 1.0;"/><text fill="#000000" font-family="sans-serif" font-size="13" lengthAdjust="spacingAndGlyphs" textLength="26" x="115" y="473.02">中断</text><!--link 中断中 to 実施中--><path d="M145.6465,506.9141 C154.4416,486.2294 166.951,456.8091 176.2738,434.8833 " fill="none" id="中断中-実施中" style="stroke: #A80036; stroke-width: 1.0;"/><polygon fill="#A80036" points="178.3313,430.0442,171.1287,436.7616,176.3749,434.6456,178.4909,439.8918,178.3313,430.0442" style="stroke: #A80036; stroke-width: 1.0;"/><text fill="#000000" font-family="sans-serif" font-size="13" lengthAdjust="spacingAndGlyphs" textLength="26" x="166" y="473.02">再開</text><!--link 審査中 to 差し戻し中--><path d="M171.7085,150.9531 C151.451,150.9531 124.6178,150.9531 101.3959,150.9531 " fill="none" id="審査中-差し戻し中" style="stroke: #A80036; stroke-width: 1.0;"/><polygon fill="#A80036" points="96.1935,150.9531,105.1935,154.9531,101.1935,150.9531,105.1935,146.9531,96.1935,150.9531" style="stroke: #A80036; stroke-width: 1.0;"/><text fill="#000000" font-family="sans-serif" font-size="13" lengthAdjust="spacingAndGlyphs" textLength="52" x="108" y="144.02">差し戻し</text><!--link 差し戻し中 to 審査中--><path d="M96.003,167.1641 C101.8253,168.7241 107.7592,170.057 113.5,170.9531 C131.5042,173.7636 136.6251,174.494 154.5,170.9531 C158.674,170.1262 162.9398,168.9351 167.1249,167.5402 " fill="none" id="差し戻し中-審査中" style="stroke: #A80036; stroke-width: 1.0;"/><polygon fill="#A80036" points="171.9904,165.8186,162.1716,165.0498,167.2768,167.4865,164.8401,172.5916,171.9904,165.8186" style="stroke: #A80036; stroke-width: 1.0;"/><text fill="#000000" font-family="sans-serif" font-size="13" lengthAdjust="spacingAndGlyphs" textLength="39" x="114.5" y="167.02">再申請</text><!--link 差し戻し中 to 終了--><path d="M51,176.2539 C51,201.8854 51,242.6753 51,277.9531 C51,277.9531 51,277.9531 51,531.9531 C51,597.2295 133.8264,634.4365 179.9195,650.0884 " fill="none" id="差し戻し中-終了" style="stroke: #A80036; stroke-width: 1.0;"/><polygon fill="#A80036" points="184.806,651.7138,177.5286,645.0776,180.0616,650.1357,175.0035,652.6687,184.806,651.7138" style="stroke: #A80036; stroke-width: 1.0;"/><text fill="#000000" font-family="sans-serif" font-size="13" lengthAdjust="spacingAndGlyphs" textLength="52" x="52" y="409.52">取り下げ</text><!--link 承認済 to 終了--><path d="M218.7098,303.1412 C223.713,312.2292 228.7796,322.7632 232,332.9531 C262.0675,428.0935 256.4249,457.6207 247,556.9531 C244.991,578.1264 244.8928,583.8326 238,603.9531 C235.1243,612.3474 231.1791,621.0662 227.1573,629.0211 " fill="none" id="承認済-終了" style="stroke: #A80036; stroke-width: 1.0;"/><polygon fill="#A80036" points="224.652,633.8658,232.3391,627.7089,226.9487,629.4245,225.2331,624.0341,224.652,633.8658" style="stroke: #A80036; stroke-width: 1.0;"/><text fill="#000000" font-family="sans-serif" font-size="13" lengthAdjust="spacingAndGlyphs" textLength="52" x="255" y="473.02">取り下げ</text><!--link 実施中 to 終了--><path d="M195.1792,430.0169 C197.2955,439.3639 199.5043,450.0972 201,459.9531 C210.6304,523.413 213.1664,539.7772 212,603.9531 C211.8561,611.8704 211.5958,620.4257 211.3095,628.3761 " fill="none" id="実施中-終了" style="stroke: #A80036; stroke-width: 1.0;"/><polygon fill="#A80036" points="211.1082,633.7683,215.4412,624.9238,211.2948,628.7718,207.4468,624.6253,211.1082,633.7683" style="stroke: #A80036; stroke-width: 1.0;"/><text fill="#000000" font-family="sans-serif" font-size="13" lengthAdjust="spacingAndGlyphs" textLength="26" x="212" y="536.52">完了</text><!--link 中断中 to 終了--><path d="M149.8176,557.0442 C162.093,577.8305 179.5625,607.4123 192.5201,629.3539 " fill="none" id="中断中-終了" style="stroke: #A80036; stroke-width: 1.0;"/><polygon fill="#A80036" points="195.2132,633.9141,194.0808,624.1306,192.6706,629.6089,187.1924,628.1987,195.2132,633.9141" style="stroke: #A80036; stroke-width: 1.0;"/><text fill="#000000" font-family="sans-serif" font-size="13" lengthAdjust="spacingAndGlyphs" textLength="26" x="177" y="600.02">中止</text><!--link 終了 to *end--><path d="M210,684.176 C210,701.7897 210,724.7305 210,739.6459 " fill="none" id="終了-*end" style="stroke: #A80036; stroke-width: 1.0;"/><polygon fill="#A80036" points="210,744.7533,214,735.7533,210,739.7533,206,735.7533,210,744.7533" style="stroke: #A80036; stroke-width: 1.0;"/><!--
@startuml

title 状態遷移図の例
skinparam shadowing false

state 審査中
state 承認済
state 実施中
state 中断中
state 差し戻し中
state 終了

[*] - -> 審査中 : 申請
審査中 - -> 承認済 : 承認
承認済 - -> 実施中 : 開始
実施中 - -> 中断中 : 中断
中断中 - -> 実施中 : 再開

審査中 -> 差し戻し中 : 差し戻し
差し戻し中 -> 審査中 : 再申請
差し戻し中 -down-> 終了 : 取り下げ

承認済 - -> 終了 : 取り下げ
実施中 - -> 終了 : 完了
中断中 - -> 終了 : 中止

終了 - -> [*]

@enduml

PlantUML version 1.2018.02(Sat Mar 10 02:20:44 JST 2018)
(GPL source distribution)
Java Runtime: Java(TM) SE Runtime Environment
JVM: Java HotSpot(TM) 64-Bit Server VM
Java Version: 1.8.0_201-b09
Operating System: Linux
OS Version: 4.18.0-17-generic
Default Encoding: UTF-8
Language: ja
Country: JP
--></g></svg>