<?xml version="1.0" encoding="UTF-8" standalone="no"?><svg xmlns="http://www.w3.org/2000/svg" xmlns:xlink="http://www.w3.org/1999/xlink" contentScriptType="application/ecmascript" contentStyleType="text/css" height="614px" preserveAspectRatio="none" style="width:770px;height:614px;" version="1.1" viewBox="0 0 770 614" width="770px" zoomAndPan="magnify"><defs><filter height="300%" id="f1dvt5c9s3ep55" width="300%" x="-1" y="-1"><feGaussianBlur result="blurOut" stdDeviation="2.0"/><feColorMatrix in="blurOut" result="blurOut2" type="matrix" values="0 0 0 0 0 0 0 0 0 0 0 0 0 0 0 0 0 0 .4 0"/><feOffset dx="4.0" dy="4.0" in="blurOut2" result="blurOut3"/><feBlend in="SourceGraphic" in2="blurOut3" mode="normal"/></filter></defs><g><text fill="#000000" font-family="sans-serif" font-size="18" lengthAdjust="spacingAndGlyphs" text-decoration="underline" textLength="36" x="77.5" y="29.4531">顧客</text><line style="stroke: #000000; stroke-width: 1.0;" x1="77.5" x2="113.5" y1="31.4531" y2="31.4531"/><line style="stroke: #000000; stroke-width: 2.0;" x1="10" x2="10" y1="12.7451" y2="602.4482"/><rect fill="#FEFECE" filter="url(#f1dvt5c9s3ep55)" height="33.9688" rx="12.5" ry="12.5" style="stroke: #A80036; stroke-width: 1.5;" width="68" x="20" y="33.6982"/><text fill="#000000" font-family="sans-serif" font-size="12" lengthAdjust="spacingAndGlyphs" textLength="48" x="30" y="54.8369">注文する</text><rect fill="#FEFECE" filter="url(#f1dvt5c9s3ep55)" height="33.9688" rx="12.5" ry="12.5" style="stroke: #A80036; stroke-width: 1.5;" width="104" x="68" y="370.0576"/><text fill="#000000" font-family="sans-serif" font-size="12" lengthAdjust="spacingAndGlyphs" textLength="84" x="78" y="391.1963">商品を受け取る</text><rect fill="#FEFECE" filter="url(#f1dvt5c9s3ep55)" height="33.9688" rx="12.5" ry="12.5" style="stroke: #A80036; stroke-width: 1.5;" width="56" x="26" y="499.5107"/><text fill="#000000" font-family="sans-serif" font-size="12" lengthAdjust="spacingAndGlyphs" textLength="36" x="36" y="520.6494">支払う</text><rect fill="#FAEBD7" height="589.7031" style="stroke: #FAEBD7; stroke-width: 1.0;" width="123" x="181" y="12.7451"/><text fill="#000000" font-family="sans-serif" font-size="18" lengthAdjust="spacingAndGlyphs" text-decoration="underline" textLength="72" x="206.5" y="29.4531">販売部門</text><line style="stroke: #000000; stroke-width: 1.0;" x1="206.5" x2="278.5" y1="31.4531" y2="31.4531"/><line style="stroke: #000000; stroke-width: 2.0;" x1="181" x2="181" y1="12.7451" y2="602.4482"/><rect fill="#FEFECE" filter="url(#f1dvt5c9s3ep55)" height="33.9688" rx="12.5" ry="12.5" style="stroke: #A80036; stroke-width: 1.5;" width="104" x="191" y="102.667"/><text fill="#000000" font-family="sans-serif" font-size="12" lengthAdjust="spacingAndGlyphs" textLength="84" x="201" y="123.8057">在庫を確認する</text><rect fill="#FEFECE" filter="url(#f1dvt5c9s3ep55)" height="33.9688" rx="12.5" ry="12.5" style="stroke: #A80036; stroke-width: 1.5;" width="104" x="191" y="171.6357"/><text fill="#000000" font-family="sans-serif" font-size="12" lengthAdjust="spacingAndGlyphs" textLength="84" x="201" y="192.7744">出荷を確認する</text><text fill="#000000" font-family="sans-serif" font-size="18" lengthAdjust="spacingAndGlyphs" text-decoration="underline" textLength="72" x="409.5" y="29.4531">出荷部門</text><line style="stroke: #000000; stroke-width: 1.0;" x1="409.5" x2="481.5" y1="31.4531" y2="31.4531"/><line style="stroke: #000000; stroke-width: 2.0;" x1="304" x2="304" y1="12.7451" y2="602.4482"/><rect fill="#FEFECE" filter="url(#f1dvt5c9s3ep55)" height="33.9688" rx="12.5" ry="12.5" style="stroke: #A80036; stroke-width: 1.5;" width="68" x="412" y="240.6045"/><text fill="#000000" font-family="sans-serif" font-size="12" lengthAdjust="spacingAndGlyphs" textLength="48" x="422" y="261.7432">出荷する</text><rect fill="#000000" filter="url(#f1dvt5c9s3ep55)" height="6" rx="2.5" ry="2.5" style="stroke: #000000; stroke-width: 1.0;" width="264" x="314" y="309.5732"/><rect fill="#FEFECE" filter="url(#f1dvt5c9s3ep55)" height="33.9688" rx="12.5" ry="12.5" style="stroke: #A80036; stroke-width: 1.5;" width="104" x="328" y="335.5732"/><text fill="#000000" font-family="sans-serif" font-size="12" lengthAdjust="spacingAndGlyphs" textLength="84" x="338" y="356.7119">出荷を報告する</text><rect fill="#000000" filter="url(#f1dvt5c9s3ep55)" height="6" rx="2.5" ry="2.5" style="stroke: #000000; stroke-width: 1.0;" width="264" x="314" y="458.5107"/><rect fill="#FAEBD7" height="589.7031" style="stroke: #FAEBD7; stroke-width: 1.0;" width="171" x="587" y="12.7451"/><text fill="#000000" font-family="sans-serif" font-size="18" lengthAdjust="spacingAndGlyphs" text-decoration="underline" textLength="72" x="636.5" y="29.4531">経理部門</text><line style="stroke: #000000; stroke-width: 1.0;" x1="636.5" x2="708.5" y1="31.4531" y2="31.4531"/><line style="stroke: #000000; stroke-width: 2.0;" x1="587" x2="587" y1="12.7451" y2="602.4482"/><rect fill="#FEFECE" filter="url(#f1dvt5c9s3ep55)" height="33.9688" rx="12.5" ry="12.5" style="stroke: #A80036; stroke-width: 1.5;" width="68" x="597" y="404.542"/><text fill="#000000" font-family="sans-serif" font-size="12" lengthAdjust="spacingAndGlyphs" textLength="48" x="607" y="425.6807">請求する</text><rect fill="#FEFECE" filter="url(#f1dvt5c9s3ep55)" height="33.9688" rx="12.5" ry="12.5" style="stroke: #A80036; stroke-width: 1.5;" width="104" x="645" y="568.4795"/><text fill="#000000" font-family="sans-serif" font-size="12" lengthAdjust="spacingAndGlyphs" textLength="84" x="655" y="589.6182">入金を確認する</text><line style="stroke: #000000; stroke-width: 2.0;" x1="758" x2="758" y1="12.7451" y2="602.4482"/><line style="stroke: #A80036; stroke-width: 1.5;" x1="243" x2="243" y1="136.6357" y2="171.6357"/><polygon fill="#A80036" points="239,161.6357,243,171.6357,247,161.6357,243,165.6357" style="stroke: #A80036; stroke-width: 1.0;"/><line style="stroke: #A80036; stroke-width: 1.5;" x1="380" x2="380" y1="315.5732" y2="335.5732"/><polygon fill="#A80036" points="376,325.5732,380,335.5732,384,325.5732,380,329.5732" style="stroke: #A80036; stroke-width: 1.0;"/><line style="stroke: #A80036; stroke-width: 1.5;" x1="446" x2="446" y1="274.5732" y2="309.5732"/><polygon fill="#A80036" points="442,299.5732,446,309.5732,450,299.5732,446,303.5732" style="stroke: #A80036; stroke-width: 1.0;"/><line style="stroke: #A80036; stroke-width: 1.5;" x1="54" x2="54" y1="67.667" y2="85.167"/><line style="stroke: #A80036; stroke-width: 1.5;" x1="54" x2="243" y1="85.167" y2="85.167"/><line style="stroke: #A80036; stroke-width: 1.5;" x1="243" x2="243" y1="85.167" y2="102.667"/><polygon fill="#A80036" points="239,92.667,243,102.667,247,92.667,243,96.667" style="stroke: #A80036; stroke-width: 1.0;"/><line style="stroke: #A80036; stroke-width: 1.5;" x1="243" x2="243" y1="205.6045" y2="223.1045"/><line style="stroke: #A80036; stroke-width: 1.5;" x1="243" x2="446" y1="223.1045" y2="223.1045"/><line style="stroke: #A80036; stroke-width: 1.5;" x1="446" x2="446" y1="223.1045" y2="240.6045"/><polygon fill="#A80036" points="442,230.6045,446,240.6045,450,230.6045,446,234.6045" style="stroke: #A80036; stroke-width: 1.0;"/><line style="stroke: #A80036; stroke-width: 1.5;" x1="380" x2="380" y1="369.542" y2="387.042"/><line style="stroke: #A80036; stroke-width: 1.5;" x1="380" x2="631" y1="387.042" y2="387.042"/><line style="stroke: #A80036; stroke-width: 1.5;" x1="631" x2="631" y1="387.042" y2="404.542"/><polygon fill="#A80036" points="627,394.542,631,404.542,635,394.542,631,398.542" style="stroke: #A80036; stroke-width: 1.0;"/><line style="stroke: #A80036; stroke-width: 1.5;" x1="512" x2="512" y1="315.5732" y2="319.5732"/><line style="stroke: #A80036; stroke-width: 1.5;" x1="512" x2="120" y1="319.5732" y2="319.5732"/><line style="stroke: #A80036; stroke-width: 1.5;" x1="120" x2="120" y1="319.5732" y2="370.0576"/><polygon fill="#A80036" points="116,360.0576,120,370.0576,124,360.0576,120,364.0576" style="stroke: #A80036; stroke-width: 1.0;"/><line style="stroke: #A80036; stroke-width: 1.5;" x1="631" x2="631" y1="438.5107" y2="444.5107"/><line style="stroke: #A80036; stroke-width: 1.5;" x1="631" x2="380" y1="444.5107" y2="444.5107"/><line style="stroke: #A80036; stroke-width: 1.5;" x1="380" x2="380" y1="444.5107" y2="458.5107"/><polygon fill="#A80036" points="376,448.5107,380,458.5107,384,448.5107,380,452.5107" style="stroke: #A80036; stroke-width: 1.0;"/><line style="stroke: #A80036; stroke-width: 1.5;" x1="120" x2="120" y1="404.0264" y2="444.5107"/><line style="stroke: #A80036; stroke-width: 1.5;" x1="120" x2="512" y1="444.5107" y2="444.5107"/><line style="stroke: #A80036; stroke-width: 1.5;" x1="512" x2="512" y1="444.5107" y2="458.5107"/><polygon fill="#A80036" points="508,448.5107,512,458.5107,516,448.5107,512,452.5107" style="stroke: #A80036; stroke-width: 1.0;"/><line style="stroke: #A80036; stroke-width: 1.5;" x1="446" x2="446" y1="464.5107" y2="482.0107"/><line style="stroke: #A80036; stroke-width: 1.5;" x1="446" x2="54" y1="482.0107" y2="482.0107"/><line style="stroke: #A80036; stroke-width: 1.5;" x1="54" x2="54" y1="482.0107" y2="499.5107"/><polygon fill="#A80036" points="50,489.5107,54,499.5107,58,489.5107,54,493.5107" style="stroke: #A80036; stroke-width: 1.0;"/><line style="stroke: #A80036; stroke-width: 1.5;" x1="54" x2="54" y1="533.4795" y2="550.9795"/><line style="stroke: #A80036; stroke-width: 1.5;" x1="54" x2="697" y1="550.9795" y2="550.9795"/><line style="stroke: #A80036; stroke-width: 1.5;" x1="697" x2="697" y1="550.9795" y2="568.4795"/><polygon fill="#A80036" points="693,558.4795,697,568.4795,701,558.4795,697,562.4795" style="stroke: #A80036; stroke-width: 1.0;"/><!--
@startuml

|__顧客__|
    :注文する;

|#AntiqueWhite|__販売部門__|
    :在庫を確認する;
    :出荷を確認する;

|__出荷部門__|
    :出荷する;
    fork
    :出荷を報告する;

|#AntiqueWhite|__経理部門__|
    :請求する;

|__顧客__|
    forkagain
    :商品を受け取る;

|__顧客__|
    end fork
    :支払う;

|#AntiqueWhite|__経理部門__|
    :入金を確認する;

@enduml

PlantUML version 1.2018.02(Sat Mar 10 02:20:44 JST 2018)
(GPL source distribution)
Java Runtime: Java(TM) SE Runtime Environment
JVM: Java HotSpot(TM) 64-Bit Server VM
Java Version: 1.8.0_201-b09
Operating System: Linux
OS Version: 4.18.0-17-generic
Default Encoding: UTF-8
Language: ja
Country: JP
--></g></svg>