<?xml version="1.0" encoding="UTF-8" standalone="no"?><svg xmlns="http://www.w3.org/2000/svg" xmlns:xlink="http://www.w3.org/1999/xlink" contentScriptType="application/ecmascript" contentStyleType="text/css" height="242px" preserveAspectRatio="none" style="width:418px;height:242px;" version="1.1" viewBox="0 0 418 242" width="418px" zoomAndPan="magnify"><defs><filter height="300%" id="fzopi9emzjo4s" width="300%" x="-1" y="-1"><feGaussianBlur result="blurOut" stdDeviation="2.0"/><feColorMatrix in="blurOut" result="blurOut2" type="matrix" values="0 0 0 0 0 0 0 0 0 0 0 0 0 0 0 0 0 0 .4 0"/><feOffset dx="4.0" dy="4.0" in="blurOut2" result="blurOut3"/><feBlend in="SourceGraphic" in2="blurOut3" mode="normal"/></filter></defs><g><text fill="#000000" font-family="sans-serif" font-size="18" lengthAdjust="spacingAndGlyphs" textLength="198" x="108" y="16.708">パッケージ図と依存関係</text><polygon fill="#FFFFFF" filter="url(#fzopi9emzjo4s)" points="6,64.9531,42,64.9531,49,87.25,56,87.25,56,117.5469,6,117.5469,6,64.9531" style="stroke: #000000; stroke-width: 1.5;"/><line style="stroke: #000000; stroke-width: 1.5;" x1="6" x2="49" y1="87.25" y2="87.25"/><text fill="#000000" font-family="sans-serif" font-size="14" font-weight="bold" lengthAdjust="spacingAndGlyphs" textLength="30" x="10" y="79.9482">顧客</text><polygon fill="#FFFFFF" filter="url(#fzopi9emzjo4s)" points="176,64.9531,212,64.9531,219,87.25,226,87.25,226,117.5469,176,117.5469,176,64.9531" style="stroke: #000000; stroke-width: 1.5;"/><line style="stroke: #000000; stroke-width: 1.5;" x1="176" x2="219" y1="87.25" y2="87.25"/><text fill="#000000" font-family="sans-serif" font-size="14" font-weight="bold" lengthAdjust="spacingAndGlyphs" textLength="30" x="180" y="79.9482">受注</text><polygon fill="#FFFFFF" filter="url(#fzopi9emzjo4s)" points="91,64.9531,127,64.9531,134,87.25,141,87.25,141,117.5469,91,117.5469,91,64.9531" style="stroke: #000000; stroke-width: 1.5;"/><line style="stroke: #000000; stroke-width: 1.5;" x1="91" x2="134" y1="87.25" y2="87.25"/><text fill="#000000" font-family="sans-serif" font-size="14" font-weight="bold" lengthAdjust="spacingAndGlyphs" textLength="30" x="95" y="79.9482">商品</text><polygon fill="#FFFFFF" filter="url(#fzopi9emzjo4s)" points="91,177.9531,127,177.9531,134,200.25,141,200.25,141,230.5469,91,230.5469,91,177.9531" style="stroke: #000000; stroke-width: 1.5;"/><line style="stroke: #000000; stroke-width: 1.5;" x1="91" x2="134" y1="200.25" y2="200.25"/><text fill="#000000" font-family="sans-serif" font-size="14" font-weight="bold" lengthAdjust="spacingAndGlyphs" textLength="30" x="95" y="192.9482">在庫</text><polygon fill="#FFFFFF" filter="url(#fzopi9emzjo4s)" points="176,177.9531,212,177.9531,219,200.25,226,200.25,226,230.5469,176,230.5469,176,177.9531" style="stroke: #000000; stroke-width: 1.5;"/><line style="stroke: #000000; stroke-width: 1.5;" x1="176" x2="219" y1="200.25" y2="200.25"/><text fill="#000000" font-family="sans-serif" font-size="14" font-weight="bold" lengthAdjust="spacingAndGlyphs" textLength="30" x="180" y="192.9482">出荷</text><polygon fill="#FFFFFF" filter="url(#fzopi9emzjo4s)" points="261,177.9531,297,177.9531,304,200.25,311,200.25,311,230.5469,261,230.5469,261,177.9531" style="stroke: #000000; stroke-width: 1.5;"/><line style="stroke: #000000; stroke-width: 1.5;" x1="261" x2="304" y1="200.25" y2="200.25"/><text fill="#000000" font-family="sans-serif" font-size="14" font-weight="bold" lengthAdjust="spacingAndGlyphs" textLength="30" x="265" y="192.9482">請求</text><polygon fill="#FFFFFF" filter="url(#fzopi9emzjo4s)" points="346,177.9531,382,177.9531,389,200.25,396,200.25,396,230.5469,346,230.5469,346,177.9531" style="stroke: #000000; stroke-width: 1.5;"/><line style="stroke: #000000; stroke-width: 1.5;" x1="346" x2="389" y1="200.25" y2="200.25"/><text fill="#000000" font-family="sans-serif" font-size="14" font-weight="bold" lengthAdjust="spacingAndGlyphs" textLength="30" x="350" y="192.9482">回収</text><!--link 顧客 to 受注--><path d="M55.1523,60.9443 C65.1703,50.6521 77.6876,40.3998 91.5,34.9531 C112.173,26.8011 120.8611,26.7152 141.5,34.9531 C156.847,41.0788 170.5024,53.2538 180.8482,64.7382 " fill="none" id="顧客-受注" style="stroke: #A80036; stroke-width: 1.0; stroke-dasharray: 7.0,7.0;"/><polygon fill="#A80036" points="51.5768,64.7291,60.665,60.9337,55.0104,61.0945,54.8496,55.44,51.5768,64.7291" style="stroke: #A80036; stroke-width: 1.0;"/><!--link 商品 to 受注--><path d="M146.3632,91.4531 C156.1709,91.4531 165.9786,91.4531 175.7864,91.4531 " fill="none" id="商品-受注" style="stroke: #A80036; stroke-width: 1.0; stroke-dasharray: 7.0,7.0;"/><polygon fill="#A80036" points="141.2344,91.4531,150.2344,95.4531,146.2344,91.4531,150.2344,87.4531,141.2344,91.4531" style="stroke: #A80036; stroke-width: 1.0;"/><!--link 受注 to 在庫--><path d="M180.8562,118.2325 C168.3651,134.8384 152.2721,156.2325 139.2419,173.555 " fill="none" id="受注-在庫" style="stroke: #A80036; stroke-width: 1.0; stroke-dasharray: 7.0,7.0;"/><polygon fill="#A80036" points="135.9992,177.8659,144.606,173.0782,139.0049,173.8702,138.2129,168.2691,135.9992,177.8659" style="stroke: #A80036; stroke-width: 1.0;"/><!--link 商品 to 在庫--><path d="M116,123.438 C116,140.6297 116,161.578 116,177.8659 " fill="none" id="商品-在庫" style="stroke: #A80036; stroke-width: 1.0; stroke-dasharray: 7.0,7.0;"/><polygon fill="#A80036" points="116,118.2325,112,127.2325,116,123.2325,120,127.2325,116,118.2325" style="stroke: #A80036; stroke-width: 1.0;"/><!--link 受注 to 出荷--><path d="M201,123.438 C201,140.6297 201,161.578 201,177.8659 " fill="none" id="受注-出荷" style="stroke: #A80036; stroke-width: 1.0; stroke-dasharray: 7.0,7.0;"/><polygon fill="#A80036" points="201,118.2325,197,127.2325,201,123.2325,205,127.2325,201,118.2325" style="stroke: #A80036; stroke-width: 1.0;"/><!--link 在庫 to 出荷--><path d="M146.3632,204.4531 C156.1709,204.4531 165.9786,204.4531 175.7864,204.4531 " fill="none" id="在庫-出荷" style="stroke: #A80036; stroke-width: 1.0; stroke-dasharray: 7.0,7.0;"/><polygon fill="#A80036" points="141.2344,204.4531,150.2344,208.4531,146.2344,204.4531,150.2344,200.4531,141.2344,204.4531" style="stroke: #A80036; stroke-width: 1.0;"/><!--link 出荷 to 請求--><path d="M231.3632,204.4531 C241.1709,204.4531 250.9786,204.4531 260.7864,204.4531 " fill="none" id="出荷-請求" style="stroke: #A80036; stroke-width: 1.0; stroke-dasharray: 7.0,7.0;"/><polygon fill="#A80036" points="226.2344,204.4531,235.2344,208.4531,231.2344,204.4531,235.2344,200.4531,226.2344,204.4531" style="stroke: #A80036; stroke-width: 1.0;"/><!--link 請求 to 回収--><path d="M316.3632,204.4531 C326.1709,204.4531 335.9786,204.4531 345.7864,204.4531 " fill="none" id="請求-回収" style="stroke: #A80036; stroke-width: 1.0; stroke-dasharray: 7.0,7.0;"/><polygon fill="#A80036" points="311.2344,204.4531,320.2344,208.4531,316.2344,204.4531,320.2344,200.4531,311.2344,204.4531" style="stroke: #A80036; stroke-width: 1.0;"/><!--
@startuml
title パッケージ図と依存関係

package 顧客 {}
package 受注 {}
package 商品 {}
package 在庫 {}
package 出荷 {}
package 請求 {}
package 回収 {}

顧客 <. 受注
商品 <. 受注
受注 ..> 在庫
商品 <. 在庫
受注 <. 出荷
在庫 <. 出荷
出荷 <. 請求
請求 <. 回収
@enduml

PlantUML version 1.2018.02(Sat Mar 10 02:20:44 JST 2018)
(GPL source distribution)
Java Runtime: Java(TM) SE Runtime Environment
JVM: Java HotSpot(TM) 64-Bit Server VM
Java Version: 1.8.0_201-b09
Operating System: Linux
OS Version: 4.18.0-17-generic
Default Encoding: UTF-8
Language: ja
Country: JP
--></g></svg>